<?xml version="1.0" encoding="UTF-8" standalone="no"?>
<!-- Created with Inkscape (http://www.inkscape.org/) -->

<svg
   xmlns:dc="http://purl.org/dc/elements/1.1/"
   xmlns:cc="http://creativecommons.org/ns#"
   xmlns:rdf="http://www.w3.org/1999/02/22-rdf-syntax-ns#"
   xmlns:svg="http://www.w3.org/2000/svg"
   xmlns="http://www.w3.org/2000/svg"
   xmlns:sodipodi="http://sodipodi.sourceforge.net/DTD/sodipodi-0.dtd"
   xmlns:inkscape="http://www.inkscape.org/namespaces/inkscape"
   width="72"
   height="72"
   id="svg3044"
   version="1.1"
   inkscape:version="0.48.2 r9819"
   sodipodi:docname="note_green.svg"
   inkscape:export-filename="/Users/toddcope/T3/Projects/Games/Live Studio Sessions/bin/data/note_green.png"
   inkscape:export-xdpi="90"
   inkscape:export-ydpi="90">
  <defs
     id="defs3046">
    <inkscape:perspective
       sodipodi:type="inkscape:persp3d"
       inkscape:vp_x="0 : 526.18109 : 1"
       inkscape:vp_y="0 : 1000 : 0"
       inkscape:vp_z="744.09448 : 526.18109 : 1"
       inkscape:persp3d-origin="372.04724 : 350.78739 : 1"
       id="perspective3052" />
    <inkscape:perspective
       id="perspective3036"
       inkscape:persp3d-origin="0.5 : 0.33333333 : 1"
       inkscape:vp_z="1 : 0.5 : 1"
       inkscape:vp_y="0 : 1000 : 0"
       inkscape:vp_x="0 : 0.5 : 1"
       sodipodi:type="inkscape:persp3d" />
    <inkscape:perspective
       id="perspective3857"
       inkscape:persp3d-origin="0.5 : 0.33333333 : 1"
       inkscape:vp_z="1 : 0.5 : 1"
       inkscape:vp_y="0 : 1000 : 0"
       inkscape:vp_x="0 : 0.5 : 1"
       sodipodi:type="inkscape:persp3d" />
  </defs>
  <sodipodi:namedview
     id="base"
     pagecolor="#ffffff"
     bordercolor="#666666"
     borderopacity="1.0"
     inkscape:pageopacity="0.0"
     inkscape:pageshadow="2"
     inkscape:zoom="11.2"
     inkscape:cx="29.526529"
     inkscape:cy="37.037856"
     inkscape:document-units="px"
     inkscape:current-layer="g10946"
     showgrid="false"
     borderlayer="true"
     inkscape:showpageshadow="false"
     inkscape:window-width="1680"
     inkscape:window-height="1002"
     inkscape:window-x="0"
     inkscape:window-y="0"
     inkscape:window-maximized="1" />
  <metadata
     id="metadata3049">
    <rdf:RDF>
      <cc:Work
         rdf:about="">
        <dc:format>image/svg+xml</dc:format>
        <dc:type
           rdf:resource="http://purl.org/dc/dcmitype/StillImage" />
        <dc:title></dc:title>
      </cc:Work>
    </rdf:RDF>
  </metadata>
  <g
     inkscape:label="Layer 1"
     inkscape:groupmode="layer"
     id="layer1"
     transform="translate(-394.82812,-505.40947)">
    <g
       transform="translate(294.85079,-225.86963)"
       id="g10946"
       style="stroke:none">
      <path
         style="fill:#009600;fill-opacity:1;stroke:none"
         d="M 36.09375 22.25 C 29.572706 22.25 24.071024 23.154155 22.34375 24.375 C 22.336623 24.380037 22.319498 24.369952 22.3125 24.375 L 22.1875 24.5 C 22.127083 24.551198 22.078336 24.604042 22.03125 24.65625 L 6 39.6875 C 4.71664 40.44391 4 41.27119 4 42.125 C 4 45.9871 18.30494 49.125 36 49.125 C 53.69505 49.125 68.0625 45.9871 68.0625 42.125 L 68.0625 41.71875 L 50.1875 24.65625 L 50.03125 24.53125 L 49.875 24.375 L 49.84375 24.375 C 48.135104 23.148182 42.635536 22.25 36.09375 22.25 z "
         transform="translate(99.97733,731.2791)"
         id="path10820" />
      <path
         d="m 154.66531,280.72467 c 0,2.95085 -10.7646,5.34298 -24.04342,5.34298 -13.27882,0 -24.04343,-2.39213 -24.04343,-5.34298 0,-2.95085 10.76461,-5.34298 24.04343,-5.34298 13.27882,0 24.04342,2.39213 24.04342,5.34298 z"
         sodipodi:ry="5.3429837"
         sodipodi:rx="24.043427"
         sodipodi:cy="280.72467"
         sodipodi:cx="130.62189"
         id="path10822-5"
         style="fill:#ffffff;fill-opacity:0.15686275;stroke:none"
         sodipodi:type="arc"
         transform="matrix(0.59534526,0,0,0.5483777,58.30296,602.51061)" />
      <path
         style="fill:#ffffff;fill-opacity:0.15686275;stroke:none"
         d="m 165.67256,773.70744 -14.50161,-14.96941 c 0,0 -0.76034,0.40239 -1.16949,0.52628 -0.56737,0.17178 -1.75422,0.29236 -1.75422,0.29236 l 10.40842,16.89906 c 0,0 2.44238,-0.56114 3.91777,-1.05253 1.47538,-0.49141 3.09913,-1.69576 3.09913,-1.69576 z"
         id="path3843"
         sodipodi:nodetypes="ccscczc" />
      <path
         style="fill:#ffffff;fill-opacity:0.15686275;stroke:none"
         d="m 146.35807,760.31684 7.9525,17.07448 -1.87118,0.35084 -7.07539,-17.24989 0.99407,-0.17543 z"
         id="path3845" />
      <path
         style="fill:none;stroke:#ffffff;stroke-width:0.65491158000000005;stroke-linecap:butt;stroke-linejoin:miter;stroke-miterlimit:4;stroke-opacity:0.09411765;stroke-dasharray:none"
         d="m 141.79708,761.01853 3.74235,17.30838"
         id="path3847" />
      <path
         style="fill:#000000;fill-opacity:0.15686275;stroke:none"
         d="m 107.27319,773.70744 14.50161,-14.96941 c 0,0 0.76034,0.40239 1.16949,0.52628 0.56737,0.17178 1.75422,0.29236 1.75422,0.29236 l -10.40842,16.89906 c 0,0 -2.44238,-0.56114 -3.91777,-1.05253 -1.47538,-0.49141 -3.09913,-1.69576 -3.09913,-1.69576 z"
         id="path3843-5"
         sodipodi:nodetypes="ccscczc" />
      <path
         style="fill:#000000;fill-opacity:0.15686275;stroke:none"
         d="m 126.58768,760.31684 -7.9525,17.07448 1.87118,0.35084 7.07539,-17.24989 -0.99407,-0.17543 z"
         id="path3845-7" />
      <path
         style="fill:none;stroke:#000000;stroke-width:0.65491158000000005;stroke-linecap:butt;stroke-linejoin:miter;stroke-miterlimit:4;stroke-opacity:0.15686275;stroke-dasharray:none"
         d="m 131.14867,761.01853 -3.74235,17.30838"
         id="path3847-3" />
    </g>
  </g>
</svg>
